<svg xmlns="http://www.w3.org/2000/svg" width="26" height="26" viewBox="0 0 26 26">
  <defs>
    <style>
      .cls-1 {
        fill: #fff;
        fill-rule: evenodd;
      }
    </style>
  </defs>
  <path id="Forma_1" data-name="Forma 1" class="cls-1" d="M12.634,1.851a7.638,7.638,0,0,0-6.527,11.66L12.2,23.288a0.639,0.639,0,0,0,.543.3h0a0.639,0.639,0,0,0,.544-0.309l5.935-9.871A7.638,7.638,0,0,0,12.634,1.851Zm5.493,10.9-5.4,8.974L7.194,12.841A6.4,6.4,0,1,1,18.127,12.755ZM12.634,5.673a3.821,3.821,0,1,0,3.836,3.82A3.833,3.833,0,0,0,12.634,5.673Zm0,6.376A2.556,2.556,0,1,1,15.2,9.493,2.562,2.562,0,0,1,12.634,12.049Z"/>
</svg>
